<?xml version="1.0" encoding="UTF-8" standalone="no"?>
<!DOCTYPE svg PUBLIC "-//W3C//DTD SVG 1.1//EN"
 "http://www.w3.org/Graphics/SVG/1.1/DTD/svg11.dtd">
<!-- Generated by graphviz version 2.43.0 (0)
 -->
<!-- Title: %3 Pages: 1 -->
<svg width="1010pt" height="692pt"
 viewBox="0.00 0.00 1010.34 692.00" xmlns="http://www.w3.org/2000/svg" xmlns:xlink="http://www.w3.org/1999/xlink">
<g id="graph0" class="graph" transform="scale(1 1) rotate(0) translate(4 688)">
<title>%3</title>
<polygon fill="white" stroke="transparent" points="-4,4 -4,-688 1006.34,-688 1006.34,4 -4,4"/>
<!-- [root] data.google_compute_image.debian_image (expand) -->
<g id="node1" class="node">
<title>[root] data.google_compute_image.debian_image (expand)</title>
<polygon fill="none" stroke="black" points="266.56,-252 12.56,-252 12.56,-216 266.56,-216 266.56,-252"/>
<text text-anchor="middle" x="139.56" y="-230.3" font-family="Times,serif" font-size="14.00">data.google_compute_image.debian_image</text>
</g>
<!-- [root] provider[&quot;registry.terraform.io/hashicorp/google&quot;] -->
<g id="node9" class="node">
<title>[root] provider[&quot;registry.terraform.io/hashicorp/google&quot;]</title>
<polygon fill="none" stroke="black" points="266.56,-108 -0.06,-90 266.56,-72 533.17,-90 266.56,-108"/>
<text text-anchor="middle" x="266.56" y="-86.3" font-family="Times,serif" font-size="14.00">provider[&quot;registry.terraform.io/hashicorp/google&quot;]</text>
</g>
<!-- [root] data.google_compute_image.debian_image (expand)&#45;&gt;[root] provider[&quot;registry.terraform.io/hashicorp/google&quot;] -->
<g id="edge1" class="edge">
<title>[root] data.google_compute_image.debian_image (expand)&#45;&gt;[root] provider[&quot;registry.terraform.io/hashicorp/google&quot;]</title>
<path fill="none" stroke="black" d="M141.57,-215.77C144.62,-196.38 152.06,-164.86 169.56,-144 181.94,-129.24 199.53,-117.9 216.34,-109.58"/>
<polygon fill="black" stroke="black" points="217.99,-112.67 225.56,-105.26 215.02,-106.33 217.99,-112.67"/>
</g>
<!-- [root] google_compute_address.net_1_subnet_1_privateIP_1 (expand) -->
<g id="node2" class="node">
<title>[root] google_compute_address.net_1_subnet_1_privateIP_1 (expand)</title>
<polygon fill="none" stroke="black" points="662.56,-324 348.56,-324 348.56,-288 662.56,-288 662.56,-324"/>
<text text-anchor="middle" x="505.56" y="-302.3" font-family="Times,serif" font-size="14.00">google_compute_address.net_1_subnet_1_privateIP_1</text>
</g>
<!-- [root] google_compute_subnetwork.net_1_subnet_1 (expand) -->
<g id="node7" class="node">
<title>[root] google_compute_subnetwork.net_1_subnet_1 (expand)</title>
<polygon fill="none" stroke="black" points="650.56,-252 384.56,-252 384.56,-216 650.56,-216 650.56,-252"/>
<text text-anchor="middle" x="517.56" y="-230.3" font-family="Times,serif" font-size="14.00">google_compute_subnetwork.net_1_subnet_1</text>
</g>
<!-- [root] google_compute_address.net_1_subnet_1_privateIP_1 (expand)&#45;&gt;[root] google_compute_subnetwork.net_1_subnet_1 (expand) -->
<g id="edge2" class="edge">
<title>[root] google_compute_address.net_1_subnet_1_privateIP_1 (expand)&#45;&gt;[root] google_compute_subnetwork.net_1_subnet_1 (expand)</title>
<path fill="none" stroke="black" d="M508.52,-287.7C509.84,-279.98 511.43,-270.71 512.91,-262.11"/>
<polygon fill="black" stroke="black" points="516.38,-262.55 514.62,-252.1 509.48,-261.37 516.38,-262.55"/>
</g>
<!-- [root] google_compute_address.pub_addr_1 (expand) -->
<g id="node3" class="node">
<title>[root] google_compute_address.pub_addr_1 (expand)</title>
<polygon fill="none" stroke="black" points="402.06,-180 179.06,-180 179.06,-144 402.06,-144 402.06,-180"/>
<text text-anchor="middle" x="290.56" y="-158.3" font-family="Times,serif" font-size="14.00">google_compute_address.pub_addr_1</text>
</g>
<!-- [root] google_compute_address.pub_addr_1 (expand)&#45;&gt;[root] provider[&quot;registry.terraform.io/hashicorp/google&quot;] -->
<g id="edge3" class="edge">
<title>[root] google_compute_address.pub_addr_1 (expand)&#45;&gt;[root] provider[&quot;registry.terraform.io/hashicorp/google&quot;]</title>
<path fill="none" stroke="black" d="M284.62,-143.7C281.88,-135.7 278.56,-126.02 275.52,-117.15"/>
<polygon fill="black" stroke="black" points="278.81,-115.95 272.25,-107.62 272.19,-118.22 278.81,-115.95"/>
</g>
<!-- [root] google_compute_firewall.net_1_firewall (expand) -->
<g id="node4" class="node">
<title>[root] google_compute_firewall.net_1_firewall (expand)</title>
<polygon fill="none" stroke="black" points="730.06,-540 491.06,-540 491.06,-504 730.06,-504 730.06,-540"/>
<text text-anchor="middle" x="610.56" y="-518.3" font-family="Times,serif" font-size="14.00">google_compute_firewall.net_1_firewall</text>
</g>
<!-- [root] google_compute_network.net_1 (expand) -->
<g id="node6" class="node">
<title>[root] google_compute_network.net_1 (expand)</title>
<polygon fill="none" stroke="black" points="658.56,-180 466.56,-180 466.56,-144 658.56,-144 658.56,-180"/>
<text text-anchor="middle" x="562.56" y="-158.3" font-family="Times,serif" font-size="14.00">google_compute_network.net_1</text>
</g>
<!-- [root] google_compute_firewall.net_1_firewall (expand)&#45;&gt;[root] google_compute_network.net_1 (expand) -->
<g id="edge4" class="edge">
<title>[root] google_compute_firewall.net_1_firewall (expand)&#45;&gt;[root] google_compute_network.net_1 (expand)</title>
<path fill="none" stroke="black" d="M636.48,-503.94C648.58,-494.69 662.14,-482.24 670.56,-468 691.2,-433.11 690.56,-419.54 690.56,-379 690.56,-379 690.56,-379 690.56,-305 690.56,-263.11 686.63,-247.96 659.56,-216 648.56,-203.03 633.56,-192.68 618.64,-184.71"/>
<polygon fill="black" stroke="black" points="619.9,-181.42 609.39,-180.04 616.74,-187.67 619.9,-181.42"/>
</g>
<!-- [root] var.accessible_from -->
<g id="node10" class="node">
<title>[root] var.accessible_from</title>
<polygon fill="none" stroke="black" points="656.06,-468 537.06,-468 537.06,-432 662.06,-432 662.06,-462 656.06,-468"/>
<polyline fill="none" stroke="black" points="656.06,-468 656.06,-462 "/>
<polyline fill="none" stroke="black" points="662.06,-462 656.06,-462 "/>
<text text-anchor="middle" x="599.56" y="-446.3" font-family="Times,serif" font-size="14.00">var.accessible_from</text>
</g>
<!-- [root] google_compute_firewall.net_1_firewall (expand)&#45;&gt;[root] var.accessible_from -->
<g id="edge5" class="edge">
<title>[root] google_compute_firewall.net_1_firewall (expand)&#45;&gt;[root] var.accessible_from</title>
<path fill="none" stroke="black" d="M607.84,-503.7C606.62,-495.98 605.17,-486.71 603.82,-478.11"/>
<polygon fill="black" stroke="black" points="607.25,-477.44 602.24,-468.1 600.34,-478.53 607.25,-477.44"/>
</g>
<!-- [root] google_compute_instance.virtual_machine (expand) -->
<g id="node5" class="node">
<title>[root] google_compute_instance.virtual_machine (expand)</title>
<polygon fill="none" stroke="black" points="468.06,-396 217.06,-396 217.06,-360 468.06,-360 468.06,-396"/>
<text text-anchor="middle" x="342.56" y="-374.3" font-family="Times,serif" font-size="14.00">google_compute_instance.virtual_machine</text>
</g>
<!-- [root] google_compute_instance.virtual_machine (expand)&#45;&gt;[root] data.google_compute_image.debian_image (expand) -->
<g id="edge6" class="edge">
<title>[root] google_compute_instance.virtual_machine (expand)&#45;&gt;[root] data.google_compute_image.debian_image (expand)</title>
<path fill="none" stroke="black" d="M222.8,-359.99C182.16,-351.59 143.87,-339.79 131.56,-324 117.91,-306.5 122.01,-280.76 128.29,-261.46"/>
<polygon fill="black" stroke="black" points="131.59,-262.63 131.69,-252.03 125,-260.25 131.59,-262.63"/>
</g>
<!-- [root] google_compute_instance.virtual_machine (expand)&#45;&gt;[root] google_compute_address.net_1_subnet_1_privateIP_1 (expand) -->
<g id="edge7" class="edge">
<title>[root] google_compute_instance.virtual_machine (expand)&#45;&gt;[root] google_compute_address.net_1_subnet_1_privateIP_1 (expand)</title>
<path fill="none" stroke="black" d="M382.43,-359.88C404.71,-350.31 432.67,-338.3 456.31,-328.15"/>
<polygon fill="black" stroke="black" points="458,-331.23 465.81,-324.07 455.24,-324.8 458,-331.23"/>
</g>
<!-- [root] google_compute_instance.virtual_machine (expand)&#45;&gt;[root] google_compute_address.pub_addr_1 (expand) -->
<g id="edge8" class="edge">
<title>[root] google_compute_instance.virtual_machine (expand)&#45;&gt;[root] google_compute_address.pub_addr_1 (expand)</title>
<path fill="none" stroke="black" d="M338.39,-359.85C329.37,-322.75 308,-234.81 297.14,-190.1"/>
<polygon fill="black" stroke="black" points="300.51,-189.12 294.74,-180.23 293.7,-190.78 300.51,-189.12"/>
</g>
<!-- [root] var.ssh_public_key_path -->
<g id="node15" class="node">
<title>[root] var.ssh_public_key_path</title>
<polygon fill="none" stroke="black" points="286.06,-324 141.06,-324 141.06,-288 292.06,-288 292.06,-318 286.06,-324"/>
<polyline fill="none" stroke="black" points="286.06,-324 286.06,-318 "/>
<polyline fill="none" stroke="black" points="292.06,-318 286.06,-318 "/>
<text text-anchor="middle" x="216.56" y="-302.3" font-family="Times,serif" font-size="14.00">var.ssh_public_key_path</text>
</g>
<!-- [root] google_compute_instance.virtual_machine (expand)&#45;&gt;[root] var.ssh_public_key_path -->
<g id="edge9" class="edge">
<title>[root] google_compute_instance.virtual_machine (expand)&#45;&gt;[root] var.ssh_public_key_path</title>
<path fill="none" stroke="black" d="M311.73,-359.88C295.11,-350.64 274.39,-339.13 256.54,-329.21"/>
<polygon fill="black" stroke="black" points="257.94,-325.99 247.5,-324.19 254.54,-332.11 257.94,-325.99"/>
</g>
<!-- [root] google_compute_network.net_1 (expand)&#45;&gt;[root] provider[&quot;registry.terraform.io/hashicorp/google&quot;] -->
<g id="edge10" class="edge">
<title>[root] google_compute_network.net_1 (expand)&#45;&gt;[root] provider[&quot;registry.terraform.io/hashicorp/google&quot;]</title>
<path fill="none" stroke="black" d="M490.52,-143.97C442.28,-132.56 379.25,-117.65 332.35,-106.56"/>
<polygon fill="black" stroke="black" points="333.14,-103.15 322.6,-104.25 331.53,-109.96 333.14,-103.15"/>
</g>
<!-- [root] var.prefix -->
<g id="node14" class="node">
<title>[root] var.prefix</title>
<polygon fill="none" stroke="black" points="614.06,-108 551.06,-108 551.06,-72 620.06,-72 620.06,-102 614.06,-108"/>
<polyline fill="none" stroke="black" points="614.06,-108 614.06,-102 "/>
<polyline fill="none" stroke="black" points="620.06,-102 614.06,-102 "/>
<text text-anchor="middle" x="585.56" y="-86.3" font-family="Times,serif" font-size="14.00">var.prefix</text>
</g>
<!-- [root] google_compute_network.net_1 (expand)&#45;&gt;[root] var.prefix -->
<g id="edge11" class="edge">
<title>[root] google_compute_network.net_1 (expand)&#45;&gt;[root] var.prefix</title>
<path fill="none" stroke="black" d="M568.24,-143.7C570.8,-135.9 573.89,-126.51 576.74,-117.83"/>
<polygon fill="black" stroke="black" points="580.14,-118.7 579.94,-108.1 573.49,-116.51 580.14,-118.7"/>
</g>
<!-- [root] google_compute_subnetwork.net_1_subnet_1 (expand)&#45;&gt;[root] google_compute_network.net_1 (expand) -->
<g id="edge12" class="edge">
<title>[root] google_compute_subnetwork.net_1_subnet_1 (expand)&#45;&gt;[root] google_compute_network.net_1 (expand)</title>
<path fill="none" stroke="black" d="M528.68,-215.7C533.91,-207.56 540.26,-197.69 546.03,-188.7"/>
<polygon fill="black" stroke="black" points="549.1,-190.41 551.56,-180.1 543.21,-186.62 549.1,-190.41"/>
</g>
<!-- [root] output.informations -->
<g id="node8" class="node">
<title>[root] output.informations</title>
<polygon fill="none" stroke="black" points="888.06,-540 769.06,-540 769.06,-504 894.06,-504 894.06,-534 888.06,-540"/>
<polyline fill="none" stroke="black" points="888.06,-540 888.06,-534 "/>
<polyline fill="none" stroke="black" points="894.06,-534 888.06,-534 "/>
<text text-anchor="middle" x="831.56" y="-518.3" font-family="Times,serif" font-size="14.00">output.informations</text>
</g>
<!-- [root] local.ip_address (expand) -->
<g id="node16" class="node">
<title>[root] local.ip_address (expand)</title>
<ellipse fill="none" stroke="black" cx="842.56" cy="-450" rx="124.28" ry="18"/>
<text text-anchor="middle" x="842.56" y="-446.3" font-family="Times,serif" font-size="14.00">[root] local.ip_address (expand)</text>
</g>
<!-- [root] output.informations&#45;&gt;[root] local.ip_address (expand) -->
<g id="edge16" class="edge">
<title>[root] output.informations&#45;&gt;[root] local.ip_address (expand)</title>
<path fill="none" stroke="black" d="M834.27,-503.7C835.49,-495.98 836.94,-486.71 838.3,-478.11"/>
<polygon fill="black" stroke="black" points="841.77,-478.53 839.87,-468.1 834.86,-477.44 841.77,-478.53"/>
</g>
<!-- [root] var.gcp_project_id -->
<g id="node11" class="node">
<title>[root] var.gcp_project_id</title>
<polygon fill="none" stroke="black" points="193.56,-36 81.56,-36 81.56,0 199.56,0 199.56,-30 193.56,-36"/>
<polyline fill="none" stroke="black" points="193.56,-36 193.56,-30 "/>
<polyline fill="none" stroke="black" points="199.56,-30 193.56,-30 "/>
<text text-anchor="middle" x="140.56" y="-14.3" font-family="Times,serif" font-size="14.00">var.gcp_project_id</text>
</g>
<!-- [root] provider[&quot;registry.terraform.io/hashicorp/google&quot;]&#45;&gt;[root] var.gcp_project_id -->
<g id="edge19" class="edge">
<title>[root] provider[&quot;registry.terraform.io/hashicorp/google&quot;]&#45;&gt;[root] var.gcp_project_id</title>
<path fill="none" stroke="black" d="M239.22,-73.81C221.97,-64.23 199.41,-51.7 180.22,-41.03"/>
<polygon fill="black" stroke="black" points="181.83,-37.92 171.38,-36.13 178.43,-44.04 181.83,-37.92"/>
</g>
<!-- [root] var.gcp_region -->
<g id="node12" class="node">
<title>[root] var.gcp_region</title>
<polygon fill="none" stroke="black" points="309.56,-36 217.56,-36 217.56,0 315.56,0 315.56,-30 309.56,-36"/>
<polyline fill="none" stroke="black" points="309.56,-36 309.56,-30 "/>
<polyline fill="none" stroke="black" points="315.56,-30 309.56,-30 "/>
<text text-anchor="middle" x="266.56" y="-14.3" font-family="Times,serif" font-size="14.00">var.gcp_region</text>
</g>
<!-- [root] provider[&quot;registry.terraform.io/hashicorp/google&quot;]&#45;&gt;[root] var.gcp_region -->
<g id="edge20" class="edge">
<title>[root] provider[&quot;registry.terraform.io/hashicorp/google&quot;]&#45;&gt;[root] var.gcp_region</title>
<path fill="none" stroke="black" d="M266.56,-71.7C266.56,-63.98 266.56,-54.71 266.56,-46.11"/>
<polygon fill="black" stroke="black" points="270.06,-46.1 266.56,-36.1 263.06,-46.1 270.06,-46.1"/>
</g>
<!-- [root] var.gcp_zone -->
<g id="node13" class="node">
<title>[root] var.gcp_zone</title>
<polygon fill="none" stroke="black" points="417.06,-36 334.06,-36 334.06,0 423.06,0 423.06,-30 417.06,-36"/>
<polyline fill="none" stroke="black" points="417.06,-36 417.06,-30 "/>
<polyline fill="none" stroke="black" points="423.06,-30 417.06,-30 "/>
<text text-anchor="middle" x="378.56" y="-14.3" font-family="Times,serif" font-size="14.00">var.gcp_zone</text>
</g>
<!-- [root] provider[&quot;registry.terraform.io/hashicorp/google&quot;]&#45;&gt;[root] var.gcp_zone -->
<g id="edge21" class="edge">
<title>[root] provider[&quot;registry.terraform.io/hashicorp/google&quot;]&#45;&gt;[root] var.gcp_zone</title>
<path fill="none" stroke="black" d="M291.13,-73.64C306.27,-64.18 325.93,-51.89 342.77,-41.36"/>
<polygon fill="black" stroke="black" points="344.66,-44.31 351.28,-36.04 340.95,-38.38 344.66,-44.31"/>
</g>
<!-- [root] local.ip_address (expand)&#45;&gt;[root] google_compute_instance.virtual_machine (expand) -->
<g id="edge13" class="edge">
<title>[root] local.ip_address (expand)&#45;&gt;[root] google_compute_instance.virtual_machine (expand)</title>
<path fill="none" stroke="black" d="M756.6,-436.97C678.96,-426.1 563.52,-409.94 474.25,-397.44"/>
<polygon fill="black" stroke="black" points="474.71,-393.97 464.32,-396.05 473.74,-400.9 474.71,-393.97"/>
</g>
<!-- [root] meta.count&#45;boundary (EachMode fixup) -->
<g id="node17" class="node">
<title>[root] meta.count&#45;boundary (EachMode fixup)</title>
<ellipse fill="none" stroke="black" cx="825.56" cy="-594" rx="176.57" ry="18"/>
<text text-anchor="middle" x="825.56" y="-590.3" font-family="Times,serif" font-size="14.00">[root] meta.count&#45;boundary (EachMode fixup)</text>
</g>
<!-- [root] meta.count&#45;boundary (EachMode fixup)&#45;&gt;[root] google_compute_firewall.net_1_firewall (expand) -->
<g id="edge14" class="edge">
<title>[root] meta.count&#45;boundary (EachMode fixup)&#45;&gt;[root] google_compute_firewall.net_1_firewall (expand)</title>
<path fill="none" stroke="black" d="M775.42,-576.68C744.83,-566.72 705.48,-553.91 672.9,-543.3"/>
<polygon fill="black" stroke="black" points="673.61,-539.85 663.02,-540.08 671.45,-546.51 673.61,-539.85"/>
</g>
<!-- [root] meta.count&#45;boundary (EachMode fixup)&#45;&gt;[root] output.informations -->
<g id="edge15" class="edge">
<title>[root] meta.count&#45;boundary (EachMode fixup)&#45;&gt;[root] output.informations</title>
<path fill="none" stroke="black" d="M827.04,-575.7C827.7,-567.98 828.49,-558.71 829.23,-550.11"/>
<polygon fill="black" stroke="black" points="832.72,-550.37 830.09,-540.1 825.75,-549.77 832.72,-550.37"/>
</g>
<!-- [root] provider[&quot;registry.terraform.io/hashicorp/google&quot;] (close) -->
<g id="node18" class="node">
<title>[root] provider[&quot;registry.terraform.io/hashicorp/google&quot;] (close)</title>
<ellipse fill="none" stroke="black" cx="393.56" cy="-594" rx="237.46" ry="18"/>
<text text-anchor="middle" x="393.56" y="-590.3" font-family="Times,serif" font-size="14.00">[root] provider[&quot;registry.terraform.io/hashicorp/google&quot;] (close)</text>
</g>
<!-- [root] provider[&quot;registry.terraform.io/hashicorp/google&quot;] (close)&#45;&gt;[root] google_compute_firewall.net_1_firewall (expand) -->
<g id="edge17" class="edge">
<title>[root] provider[&quot;registry.terraform.io/hashicorp/google&quot;] (close)&#45;&gt;[root] google_compute_firewall.net_1_firewall (expand)</title>
<path fill="none" stroke="black" d="M444.98,-576.41C475.76,-566.48 515.11,-553.79 547.72,-543.27"/>
<polygon fill="black" stroke="black" points="549.17,-546.48 557.61,-540.08 547.02,-539.82 549.17,-546.48"/>
</g>
<!-- [root] provider[&quot;registry.terraform.io/hashicorp/google&quot;] (close)&#45;&gt;[root] google_compute_instance.virtual_machine (expand) -->
<g id="edge18" class="edge">
<title>[root] provider[&quot;registry.terraform.io/hashicorp/google&quot;] (close)&#45;&gt;[root] google_compute_instance.virtual_machine (expand)</title>
<path fill="none" stroke="black" d="M389.47,-575.85C380.63,-538.75 359.67,-450.81 349.01,-406.1"/>
<polygon fill="black" stroke="black" points="352.39,-405.15 346.66,-396.23 345.58,-406.77 352.39,-405.15"/>
</g>
<!-- [root] root -->
<g id="node19" class="node">
<title>[root] root</title>
<ellipse fill="none" stroke="black" cx="609.56" cy="-666" rx="47.39" ry="18"/>
<text text-anchor="middle" x="609.56" y="-662.3" font-family="Times,serif" font-size="14.00">[root] root</text>
</g>
<!-- [root] root&#45;&gt;[root] meta.count&#45;boundary (EachMode fixup) -->
<g id="edge22" class="edge">
<title>[root] root&#45;&gt;[root] meta.count&#45;boundary (EachMode fixup)</title>
<path fill="none" stroke="black" d="M644.74,-653.6C677.36,-643.03 726.57,-627.08 765.42,-614.49"/>
<polygon fill="black" stroke="black" points="766.62,-617.78 775.06,-611.36 764.47,-611.12 766.62,-617.78"/>
</g>
<!-- [root] root&#45;&gt;[root] provider[&quot;registry.terraform.io/hashicorp/google&quot;] (close) -->
<g id="edge23" class="edge">
<title>[root] root&#45;&gt;[root] provider[&quot;registry.terraform.io/hashicorp/google&quot;] (close)</title>
<path fill="none" stroke="black" d="M574.37,-653.6C541.97,-643.1 493.21,-627.29 454.48,-614.74"/>
<polygon fill="black" stroke="black" points="455.46,-611.38 444.87,-611.63 453.3,-618.04 455.46,-611.38"/>
</g>
</g>
</svg>
